<?xml version="1.0" encoding="utf-8"?>
<!-- Generator: Adobe Illustrator 23.0.2, SVG Export Plug-In . SVG Version: 6.00 Build 0)  -->
<svg version="1.1" id="Layer_1" xmlns="http://www.w3.org/2000/svg" xmlns:xlink="http://www.w3.org/1999/xlink" x="0px" y="0px"
	 width="1561px" height="328px" viewBox="0 0 1561 328" style="enable-background:new 0 0 1561 328;" xml:space="preserve">
<style type="text/css">
	.st0{fill:#231F20;}
	.st1{fill:#CC0000;}
	.st2{fill:#FFFFFF;}
</style>
<g>
	<path class="st0" d="M607.2,132.1V66h36.1v10.2H621v16.3h20.5v10.2H621V122h23v10.2L607.2,132.1L607.2,132.1z"/>
	<path class="st0" d="M666.5,66v66.2h-12.9V66H666.5z"/>
	<path class="st0" d="M689.8,111.1c0,5.5,0.2,13.8,5.9,13.8c4.6,0,5.5-4.4,5.5-8.3h13.1c-0.2,5-1.8,9.2-5,12
		c-3,2.8-7.6,4.5-13.7,4.5c-16.7,0-18.9-10.2-18.9-24.7c0-12.7,1.8-23.5,18.9-23.5c17.4,0,19.3,11.3,18.9,26.1L689.8,111.1
		L689.8,111.1z M701.7,103.8c0-4.5,0.2-10.9-6-10.9c-6,0-5.9,7-5.9,10.9H701.7z"/>
	<path class="st0" d="M747.3,102.3c0-6.9-1.7-9.2-5.8-9.2c-5.5,0-6,4.9-6,14.5c0,14.1,1.2,17.1,6,17.1c4,0,6-3.7,6-9.7h12.9
		c0,12.6-6.8,18-18.9,18c-16.7,0-18.9-10.2-18.9-24.7c0-12.7,1.8-23.5,18.9-23.5c11.9,0,18.7,5.3,18.7,17.4L747.3,102.3L747.3,102.3
		z"/>
	<path class="st0" d="M764.4,85.8h5.2v-7.3l12.9-5.8v13.1h6.7v8h-6.7v24.8c0,3.5-0.1,5.8,4.1,5.8c0.8,0,1.7,0,2.3-0.2v8
		c-1.7,0.2-3.6,0.5-6.7,0.5c-11.2,0-12.7-7.4-12.7-10.3V93.8h-5.2v-8H764.4z"/>
	<path class="st0" d="M807.4,85.8v6h0.2c2.4-5.3,6.8-6.9,12-6.9v11.6c-11.4-0.7-11.6,5.9-11.6,10.5v25.2h-12.9V85.8H807.4z"/>
	<path class="st0" d="M839.6,66v10.2h-12.9V66H839.6z M839.6,132.1h-12.9V85.8h12.9V132.1z"/>
	<path class="st0" d="M874.6,102.3c0-6.9-1.7-9.2-5.8-9.2c-5.5,0-6,4.9-6,14.5c0,14.1,1.2,17.1,6,17.1c4,0,6-3.7,6-9.7h12.9
		c0,12.6-6.8,18-18.9,18c-16.7,0-18.9-10.2-18.9-24.7c0-12.7,1.8-23.5,18.9-23.5c11.9,0,18.7,5.3,18.7,17.4L874.6,102.3L874.6,102.3
		z"/>
	<path class="st0" d="M932,123.5c0,2.8,0.4,5.8,0.6,8.6h-12L920,126h-0.2c-2.8,4.8-6.5,7.1-12.1,7.1c-9,0-12.3-6.7-12.3-14.8
		c0-15.3,11.8-16,23.8-15.8V99c0-3.9-0.5-6.8-5.2-6.8c-4.5,0-4.9,3.4-4.9,7.1h-12.7c0-5.6,1.7-9.2,4.8-11.3c2.9-2.2,7.2-3,12.1-3
		c16.4,0,18.5,7.1,18.5,15.5v23H932z M908.2,117.8c0,3.3,0.5,7.3,4.8,7.3c7.6,0,6.4-10.3,6.4-15.3
		C913,110.1,908.2,109.5,908.2,117.8z"/>
	<path class="st0" d="M956.8,66v66.2h-12.9V66H956.8z"/>
	<path class="st0" d="M1023.7,123.5c0,2.8,0.4,5.8,0.6,8.6h-12l-0.6-6.1h-0.2c-2.8,4.8-6.5,7.1-12.1,7.1c-9,0-12.3-6.7-12.3-14.8
		c0-15.3,11.8-16,23.8-15.8V99c0-3.9-0.5-6.8-5.2-6.8c-4.5,0-4.9,3.4-4.9,7.1h-12.7c0-5.6,1.7-9.2,4.8-11.3c2.9-2.2,7.2-3,12.1-3
		c16.4,0,18.5,7.1,18.5,15.5v23H1023.7z M999.9,117.8c0,3.3,0.5,7.3,4.8,7.3c7.6,0,6.4-10.3,6.4-15.3
		C1004.6,110.1,999.9,109.5,999.9,117.8z"/>
	<path class="st0" d="M1047.4,90.5h0.2c1.3-2.1,2.8-3.5,4.6-4.3c1.8-0.9,3.9-1.3,6.3-1.3c6.1,0,11.6,3.7,11.6,10.1v37.1h-12.9v-31.9
		c0-4.1-0.7-7.3-4.9-7.3c-4.1,0-4.9,3.2-4.9,7.3v31.9h-12.9V85.8h12.9L1047.4,90.5L1047.4,90.5z"/>
	<path class="st0" d="M1103.4,132.1V127h-0.2c-2.4,4.5-6,6.1-10.9,6.1c-13.4,0-12.9-14.9-12.9-24.4c0-9.4-0.4-23.7,12.7-23.7
		c4.7,0,7.9,1.4,10.5,5.3h0.2V66h12.9v66.2L1103.4,132.1L1103.4,132.1z M1102.7,108.6c0-9.3,0.1-15.7-5.2-15.7
		c-5.6,0-5.5,6.4-5.5,15.7c0,11.6,0.8,16.5,5.5,16.5C1101.9,125.1,1102.7,120.2,1102.7,108.6z"/>
	<path class="st0" d="M606.6,209.1c0-17.5,0-34.2,22.8-34.2c14.1,0,19.8,7.8,19.3,22h-13.6c0-8.8-1.6-12.1-5.7-12.1
		c-7.8,0-8.8,7.3-8.8,24.3s1,24.3,8.8,24.3c6.4,0,6.1-8.3,6.3-13.5h13.7c0,17.7-7.1,23.4-20,23.4
		C606.6,243.3,606.6,226.4,606.6,209.1z"/>
	<path class="st0" d="M656.5,218.4c0-12.7,1.8-23.5,18.9-23.5c17.1,0,18.9,10.8,18.9,23.5c0,14.5-2.2,24.7-18.9,24.7
		C658.7,243.1,656.5,232.9,656.5,218.4z M681.3,217.7c0-9.6-0.5-14.5-6-14.5s-6,4.9-6,14.5c0,14.1,1.2,17.1,6,17.1
		S681.3,231.8,681.3,217.7z"/>
	<path class="st0" d="M715.3,200.5h0.2c2.6-4.1,6.1-5.6,10.9-5.6c4.6,0,8.2,2.2,10.4,5.9c3-4,6.7-5.9,12-5.9
		c6.1,0,11.6,3.7,11.6,10.1v37.1h-12.9v-31.9c0-4.1-0.7-7.3-4.9-7.3c-4.1,0-4.9,3.2-4.9,7.3v31.9H725v-31.9c0-4.1-0.7-7.3-4.9-7.3
		s-4.9,3.2-4.9,7.3v31.9h-12.9v-46.3h12.9v4.7H715.3z"/>
	<path class="st0" d="M781.9,195.9v5.1h0.2c2.4-4.5,6-6.1,10.9-6.1c13.4,0,12.9,14.9,12.9,24.4c0,9.4,0.4,23.7-12.7,23.7
		c-4.7,0-7.9-1.4-10.5-5.3h-0.2V262h-12.9v-66.2L781.9,195.9L781.9,195.9z M793.2,218.6c0-9.3,0.1-15.7-5.5-15.7
		c-5.3,0-5.2,6.4-5.2,15.7c0,11.6,0.8,16.5,5.2,16.5C792.4,235.1,793.2,230.2,793.2,218.6z"/>
	<path class="st0" d="M838.1,237.5h-0.2c-1.3,2-2.8,3.5-4.6,4.3c-1.8,0.9-3.9,1.3-6.3,1.3c-6.1,0-11.6-3.7-11.6-10.1v-37.1h12.9V228
		c0,4.1,0.7,7.2,4.9,7.2c4.1,0,4.9-3,4.9-7.2v-32.1H851V233c0,3,0.2,6.1,0.5,9.2h-13.4V237.5z"/>
	<path class="st0" d="M856,195.9h5.2v-7.3l12.9-5.8v13.1h6.7v8h-6.7v24.8c0,3.5-0.1,5.8,4.1,5.8c0.8,0,1.7,0,2.3-0.2v8
		c-1.7,0.2-3.6,0.5-6.7,0.5c-11.2,0-12.7-7.4-12.7-10.3V204H856V195.9z"/>
	<path class="st0" d="M898.7,221.1c0,5.5,0.2,13.8,5.9,13.8c4.6,0,5.5-4.4,5.5-8.3h13.1c-0.2,5-1.8,9.2-5,12
		c-3,2.8-7.6,4.5-13.7,4.5c-16.7,0-18.9-10.2-18.9-24.7c0-12.7,1.8-23.5,18.9-23.5c17.4,0,19.3,11.3,18.9,26.1L898.7,221.1
		L898.7,221.1z M910.5,213.8c0-4.5,0.2-10.9-6-10.9c-6,0-5.9,7-5.9,10.9H910.5z"/>
	<path class="st0" d="M944.9,195.9v6h0.2c2.4-5.3,6.8-6.9,12-6.9v11.6c-11.4-0.7-11.6,5.9-11.6,10.5v25.2h-12.9V196h12.3V195.9z"/>
	<path class="st0" d="M984.1,242.2V176h36.1v10.2h-22.3v16.3h20.5v10.2h-20.5V232h23v10.2H984.1z"/>
	<path class="st0" d="M1042.2,200.5h0.2c1.3-2.1,2.8-3.5,4.6-4.3c1.8-0.9,3.9-1.3,6.3-1.3c6.1,0,11.6,3.7,11.6,10.1v37.1H1052v-31.9
		c0-4.1-0.7-7.3-4.9-7.3c-4.1,0-4.9,3.2-4.9,7.3v31.9h-12.9v-46.3h12.9L1042.2,200.5L1042.2,200.5z"/>
	<path class="st0" d="M1110.5,195.9v48.2c0,3.2,0.2,15.9-17.6,15.9c-9.6,0-17.9-2.5-18.2-13.8h12.7c0,1.9,0.3,3.6,1.1,4.7
		c0.8,1.2,2.3,1.8,4.3,1.8c3.2,0,4.8-3,4.8-7.7v-8.9h-0.2c-1.9,3.6-5.6,5.4-9.8,5.4c-14.2,0-13.6-13-13.6-23.5
		c0-10.2,0.2-23.1,13.7-23.1c4.6,0,8.5,2,10.4,6.3h0.2v-5.4L1110.5,195.9L1110.5,195.9z M1092.3,233.5c4.7,0,5.3-4.9,5.3-14.7
		c0-10.2-0.5-16-5.2-16c-4.9,0-5.7,3.4-5.7,17.5C1086.7,224.7,1086,233.5,1092.3,233.5z"/>
	<path class="st0" d="M1135,176v10.2h-12.9V176H1135z M1135,242.2h-12.9v-46.3h12.9V242.2z"/>
	<path class="st0" d="M1159.4,200.5h0.2c1.3-2.1,2.8-3.5,4.6-4.3c1.8-0.9,3.9-1.3,6.3-1.3c6.1,0,11.6,3.7,11.6,10.1v37.1h-12.9
		v-31.9c0-4.1-0.7-7.3-4.9-7.3c-4.1,0-4.9,3.2-4.9,7.3v31.9h-12.9v-46.3h12.9L1159.4,200.5L1159.4,200.5z"/>
	<path class="st0" d="M1204.2,221.1c0,5.5,0.2,13.8,5.9,13.8c4.6,0,5.5-4.4,5.5-8.3h13.1c-0.2,5-1.8,9.2-5,12
		c-3,2.8-7.6,4.5-13.7,4.5c-16.7,0-18.9-10.2-18.9-24.7c0-12.7,1.8-23.5,18.9-23.5c17.4,0,19.3,11.3,18.9,26.1L1204.2,221.1
		L1204.2,221.1z M1216,213.8c0-4.5,0.2-10.9-6-10.9c-6,0-5.9,7-5.9,10.9H1216z"/>
	<path class="st0" d="M1250,221.1c0,5.5,0.2,13.8,5.9,13.8c4.6,0,5.5-4.4,5.5-8.3h13.1c-0.2,5-1.8,9.2-5,12c-3,2.8-7.6,4.5-13.7,4.5
		c-16.7,0-18.9-10.2-18.9-24.7c0-12.7,1.8-23.5,18.9-23.5c17.4,0,19.3,11.3,18.9,26.1L1250,221.1L1250,221.1z M1261.9,213.8
		c0-4.5,0.2-10.9-6-10.9c-6,0-5.9,7-5.9,10.9H1261.9z"/>
	<path class="st0" d="M1296.3,195.9v6h0.2c2.4-5.3,6.8-6.9,12-6.9v11.6c-11.4-0.7-11.6,5.9-11.6,10.5v25.2H1284V196h12.3V195.9z"/>
	<path class="st0" d="M1328.5,176v10.2h-12.9V176H1328.5z M1328.5,242.2h-12.9v-46.3h12.9V242.2z"/>
	<path class="st0" d="M1352.9,200.5h0.2c1.3-2.1,2.8-3.5,4.6-4.3c1.8-0.9,3.9-1.3,6.3-1.3c6.1,0,11.6,3.7,11.6,10.1v37.1h-12.9
		v-31.9c0-4.1-0.7-7.3-4.9-7.3c-4.1,0-4.9,3.2-4.9,7.3v31.9H1340v-46.3h12.9V200.5z"/>
	<path class="st0" d="M1421.2,195.9v48.2c0,3.2,0.2,15.9-17.6,15.9c-9.6,0-17.9-2.5-18.2-13.8h12.7c0,1.9,0.3,3.6,1.1,4.7
		c0.8,1.2,2.3,1.8,4.3,1.8c3.2,0,4.8-3,4.8-7.7v-8.9h-0.2c-1.9,3.6-5.6,5.4-9.8,5.4c-14.2,0-13.6-13-13.6-23.5
		c0-10.2,0.2-23.1,13.7-23.1c4.6,0,8.5,2,10.4,6.3h0.2v-5.4L1421.2,195.9L1421.2,195.9z M1403,233.5c4.7,0,5.3-4.9,5.3-14.7
		c0-10.2-0.5-16-5.2-16c-4.9,0-5.7,3.4-5.7,17.5C1397.4,224.7,1396.7,233.5,1403,233.5z"/>
</g>
<g>
	<rect x="29" y="41" class="st1" width="504" height="243"/>
	<g>
		<path class="st2" d="M84.5,160V87.2H105l19.4,50.4h0.2V87.2h14.2V160h-20.1l-19.9-53.2h-0.2V160H84.5z"/>
		<path class="st2" d="M150.9,123.6c0-19.2,0-37.6,25.1-37.6c15.5,0,21.8,8.6,21.2,24.2h-14.9c0-9.7-1.7-13.3-6.2-13.3
			c-8.6,0-9.7,8.1-9.7,26.7s1.1,26.7,9.7,26.7c7.1,0,6.8-9.1,7-14.8h15c0,19.5-7.8,25.7-22,25.7
			C150.9,161.2,150.9,142.7,150.9,123.6z"/>
		<path class="st2" d="M249.7,161.2c-18.8,0-22.4-11.1-21.6-23.7h15.2c0,7,0.3,12.8,8.7,12.8c5.1,0,7.7-3.3,7.7-8.3
			c0-13.1-30.6-13.9-30.6-35.6c0-11.4,5.4-20.5,24-20.5c14.8,0,22.2,6.7,21.2,21.9h-14.8c0-5.4-0.9-11-7.1-11
			c-4.9,0-7.9,2.7-7.9,7.8c0,13.8,30.6,12.6,30.6,35.5C275.1,159,261.3,161.2,249.7,161.2z"/>
		<path class="st2" d="M329.3,87.2v12.1h-16.9V160h-15.2V99.3h-16.9V87.2H329.3z"/>
		<path class="st2" d="M324.8,160L345,87.2H365l19.8,72.8h-16l-4-16.1H344l-4.1,16.1H324.8z M354.1,101.2h-0.2l-7,31.4h14.5
			L354.1,101.2z"/>
		<path class="st2" d="M429.2,87.2v12.1h-16.9V160h-15.2V99.3h-16.9V87.2H429.2z"/>
		<path class="st2" d="M436.3,160V87.2H476v11.2h-24.5v17.9h22.6v11.2h-22.6v21.3h25.3V160H436.3z"/>
	</g>
	<g>
		<path class="st2" d="M89.6,219.8c0,8.3,0,20.1,13,20.1c13,0,13-11.8,13-20.1v-40.1h5.6V224c0,16.4-8.6,20.7-18.6,20.7
			s-18.6-4.3-18.6-20.7v-44.2h5.6V219.8z"/>
		<path class="st2" d="M134.5,243.5v-63.7h8.6l25.9,55.9l0.2-0.2v-55.8h5.6v63.7h-8.6l-25.9-56.6l-0.2,0.2v56.4H134.5z"/>
		<path class="st2" d="M194.8,179.8v63.7h-5.6v-63.7H194.8z"/>
		<path class="st2" d="M240.2,179.8h5.5L228,243.5H221l-17.7-63.7h6l15.1,57h0.2L240.2,179.8z"/>
		<path class="st2" d="M282.6,179.8v4.8h-23.2v23.8h22.1v4.8h-22.1v25.6h23.8v4.8h-29.5v-63.7H282.6z"/>
		<path class="st2" d="M298.6,212.6v30.9H293v-63.7h17.6c12.3,0,15.4,4.1,15.4,15.3c0,7.9-1.3,13.2-9.9,15.2v0.2
			c8.9,1.9,9.4,2.9,9.4,25.7c0,2.5,0.4,4.9,0.6,7.4h-5.4c-0.5-1.9-0.8-12.4-0.9-15.9c-0.1-2.7,1.8-15-10.5-15H298.6z M298.6,207.8
			h9.2c8.5,0,12.4-2.2,12.4-12.9c0-8.7-3.4-10.4-10.1-10.4h-11.6V207.8z"/>
		<path class="st2" d="M365.1,195.9c-0.2-7.9-2.1-12.6-10.8-12.6c-6.9,0-11.2,2.4-11.2,9.9c0,9.4,4.8,9.7,12,14.9
			c7.9,5.6,15.9,7.3,15.9,19.7c0,11.4-5.8,16.9-16.9,16.9c-12.4,0-18-6.7-17.5-19.1h5.8c0,7.1,0.5,14.4,11.9,14.4
			c7.4,0,11-4,11-11.3c0-8.6-5.7-11.1-14.9-16.8c-12.4-7.6-12.9-11.4-13-17.7c-0.1-11,6.9-15.6,17.3-15.6c13.2,0,16.1,8.2,16.1,17.4
			H365.1z"/>
		<path class="st2" d="M389.1,179.8v63.7h-5.6v-63.7H389.1z"/>
		<path class="st2" d="M413.4,184.5h-15.5v-4.8h36.7v4.8h-15.5v58.9h-5.6V184.5z"/>
		<path class="st2" d="M455.6,217l-18-37.2h6.4l14.6,31.7l15.3-31.7h5.6L461.2,217v26.5h-5.6V217z"/>
	</g>
</g>
</svg>
